<svg width="500px" height="500px" viewBox="0 0 1024 1024" version="1.1" xmlns="http://www.w3.org/2000/svg" xmlns:xlink="http://www.w3.org/1999/xlink">
    <defs>
        <rect id="path-1" x="489" y="428" width="28" height="28" rx="3"></rect>
        <mask id="mask-2" maskContentUnits="userSpaceOnUse" maskUnits="objectBoundingBox" x="0" y="0" width="28" height="28" fill="black">
            <use xlink:href="#path-1"></use>
        </mask>
    </defs>
    <g id="Page-1" stroke="none" stroke-width="1" fill="none" fill-rule="evenodd">
        <path d="M533,873.2 C536,873.2 538.5,870.7 538.5,867.7 L538.5,865.2 L551.7,865.2 C552.4,867.5 554.5,869.2 557,869.2 C560,869.2 562.5,866.7 562.5,863.7 C562.5,860.7 560,858.2 557,858.2 C554.5,858.2 552.4,859.9 551.7,862.2 L538.5,862.2 L538.5,857.2 L541,857.2 C541.8,857.2 542.5,856.5 542.5,855.7 C542.5,854.9 541.8,854.2 541,854.2 L538.5,854.2 L538.5,849.2 L551.7,849.2 C552.4,851.5 554.5,853.2 557,853.2 C560,853.2 562.5,850.7 562.5,847.7 C562.5,844.7 560,842.2 557,842.2 C554.5,842.2 552.4,843.9 551.7,846.2 L538.5,846.2 L538.5,841.2 L541,841.2 C541.8,841.2 542.5,840.5 542.5,839.7 C542.5,838.9 541.8,838.2 541,838.2 L538.5,838.2 L538.5,833.2 L551.7,833.2 C552.4,835.5 554.5,837.2 557,837.2 C560,837.2 562.5,834.7 562.5,831.7 C562.5,828.7 560,826.2 557,826.2 C554.5,826.2 552.4,827.9 551.7,830.2 L538.5,830.2 L538.5,825.2 L541,825.2 C541.8,825.2 542.5,824.5 542.5,823.7 C542.5,822.9 541.8,822.2 541,822.2 L538.5,822.2 L538.5,819.7 C538.5,816.7 536,814.2 533,814.2 L530.5,814.2 L530.5,779.7 C530.5,779.3 530.3,778.9 530.1,778.6 L498.5,747.1 L498.5,724.4 L506.1,716.8 C506.4,716.5 506.5,716.1 506.5,715.7 L506.5,692.3 L518.1,680.7 C518.2,680.6 518.2,680.5 518.3,680.4 C519.1,680.9 520,681.1 521,681.1 C524,681.1 526.5,678.6 526.5,675.6 C526.5,672.6 524,670.1 521,670.1 C518,670.1 515.5,672.6 515.5,675.6 C515.5,676.6 515.8,677.5 516.2,678.3 C516.1,678.4 516,678.4 515.9,678.5 L503.9,690.5 C503.6,690.8 503.5,691.2 503.5,691.6 L503.5,715 L495.9,722.6 C495.6,722.9 495.5,723.3 495.5,723.7 L495.5,747.7 C495.5,748.1 495.7,748.5 495.9,748.8 L527.5,780.3 L527.5,814.2 L522.5,814.2 L522.5,783.7 C522.5,783.3 522.3,782.9 522.1,782.6 L490.5,751.1 L490.5,720.4 L498.1,712.8 C498.4,712.5 498.5,712.1 498.5,711.7 L498.5,680.3 L517.6,661.2 L549,661.2 C549.4,661.2 549.8,661 550.1,660.8 L577.7,633.3 L592.5,633.3 L648.1,688.8 C648.4,689.1 648.8,689.2 649.2,689.2 L665.2,689.2 C665.6,689.2 666,689 666.3,688.8 L673.9,681.2 L684,681.2 C684.7,683.5 686.8,685.2 689.3,685.2 C692.3,685.2 694.8,682.7 694.8,679.7 C694.8,676.7 692.3,674.2 689.3,674.2 C686.8,674.2 684.7,675.9 684,678.2 L673,678.2 C672.6,678.2 672.2,678.4 671.9,678.6 L664.3,686.2 L649.5,686.2 L593.9,630.7 C593.6,630.4 593.2,630.3 592.8,630.3 L576.8,630.3 C576.4,630.3 576,630.5 575.7,630.7 L548.1,658.3 L516.7,658.3 C516.3,658.3 515.9,658.5 515.6,658.7 L495.6,678.7 C495.3,679 495.2,679.4 495.2,679.8 L495.2,711.2 L487.6,718.8 C487.3,719.1 487.2,719.5 487.2,719.9 L487.2,751.9 C487.2,752.3 487.4,752.7 487.6,753 L519.2,784.5 L519.2,814.4 L514.2,814.4 L514.2,787.9 C514.2,787.5 514,787.1 513.8,786.8 L482.2,755.2 L482.2,716.5 L489.8,708.9 C490.1,708.6 490.2,708.2 490.2,707.8 L490.2,677.1 C492.5,676.4 494.2,674.3 494.2,671.8 C494.2,668.8 491.7,666.3 488.7,666.3 C485.7,666.3 483.2,668.8 483.2,671.8 C483.2,674.3 484.9,676.4 487.2,677.1 L487.2,707.2 L479.6,714.8 C479.3,715.1 479.2,715.5 479.2,715.9 L479.2,755.9 C479.2,756.3 479.4,756.7 479.6,757 L511.2,788.5 L511.2,814.4 L506.2,814.4 L506.2,791.9 C506.2,791.5 506,791.1 505.8,790.8 L474.2,759.3 L474.2,677.2 C476.5,676.5 478.2,674.4 478.2,671.9 C478.2,668.9 475.7,666.4 472.7,666.4 C469.7,666.4 467.2,668.9 467.2,671.9 C467.2,674.4 468.9,676.5 471.2,677.2 L471.2,759.9 C471.2,760.3 471.4,760.7 471.6,761 L503.2,792.5 L503.2,814.4 L498.2,814.4 L498.2,795.9 C498.2,795.5 498,795.1 497.8,794.8 L466.2,763.2 L466.2,719.8 C466.2,719.4 466,719 465.8,718.7 L462.2,715.1 L462.2,689 C464.5,688.3 466.2,686.2 466.2,683.7 C466.2,680.7 463.7,678.2 460.7,678.2 C457.7,678.2 455.2,680.7 455.2,683.7 C455.2,686.2 456.9,688.3 459.2,689 L459.2,715.7 C459.2,716.1 459.4,716.5 459.6,716.8 L463.2,720.4 L463.2,763.8 C463.2,764.2 463.4,764.6 463.6,764.9 L495.2,796.4 L495.2,814.3 L490.2,814.3 L490.2,799.8 C490.2,799.4 490,799 489.8,798.7 L458.2,767.1 L458.2,735.7 C458.2,735.3 458,734.9 457.8,734.6 L450.2,727 L450.2,676.9 C452.5,676.2 454.2,674.1 454.2,671.6 C454.2,668.6 451.7,666.1 448.7,666.1 C445.7,666.1 443.2,668.6 443.2,671.6 C443.2,674.1 444.9,676.2 447.2,676.9 L447.2,727.6 C447.2,728 447.4,728.4 447.6,728.7 L455.2,736.3 L455.2,767.7 C455.2,768.1 455.4,768.5 455.6,768.8 L487.2,800.3 L487.2,814.2 L485,814.2 C482,814.2 479.5,816.7 479.5,819.7 L479.5,822.2 L461.6,822.2 L438.5,799.1 L438.5,635.8 C438.5,635.4 438.3,635 438.1,634.7 L430.5,627.1 L430.5,601 C432.3,600.5 433.8,599 434.3,597.2 L525,597.2 C525.4,597.2 525.8,597 526.1,596.8 L529.7,593.2 L597.1,593.2 C597.5,593.2 597.9,593 598.2,592.8 L601.8,589.2 L608.6,589.2 L652.2,632.7 C652.5,633 652.9,633.1 653.3,633.1 L688,633.1 C688.7,635.4 690.8,637.1 693.3,637.1 C696.3,637.1 698.8,634.6 698.8,631.6 C698.8,628.6 696.3,626.1 693.3,626.1 C690.8,626.1 688.7,627.8 688,630.1 L653.9,630.1 L610.3,586.6 C610,586.3 609.6,586.2 609.2,586.2 L601.2,586.2 C600.8,586.2 600.4,586.4 600.1,586.6 L596.5,590.2 L529,590.2 C528.6,590.2 528.2,590.4 527.9,590.6 L524.3,594.2 L434.4,594.2 L434.4,589.2 L493,589.2 C493.4,589.2 493.8,589 494.1,588.8 L509.7,573.2 L603.8,573.2 C604.5,575.5 606.6,577.2 609.1,577.2 C612.1,577.2 614.6,574.7 614.6,571.7 C614.6,568.7 612.1,566.2 609.1,566.2 C606.6,566.2 604.5,567.9 603.8,570.2 L509,570.2 C508.6,570.2 508.2,570.4 507.9,570.6 L492.3,586.2 L434.4,586.2 L434.4,581.2 L489,581.2 C489.4,581.2 489.8,581 490.1,580.8 L505.7,565.2 L509.1,565.2 C509.5,565.2 509.9,565 510.2,564.8 L514.2,560.8 C514.3,560.7 514.3,560.6 514.4,560.5 C515.2,561 516.1,561.2 517.1,561.2 C520.1,561.2 522.6,558.7 522.6,555.7 C522.6,552.7 520.1,550.2 517.1,550.2 C514.1,550.2 511.6,552.7 511.6,555.7 C511.6,556.7 511.9,557.6 512.3,558.4 C512.2,558.5 512.1,558.5 512,558.6 L508.4,562.2 L505,562.2 C504.6,562.2 504.2,562.4 503.9,562.6 L488.3,578.2 L434.4,578.2 L434.4,573.2 L485,573.2 C485.4,573.2 485.8,573 486.1,572.8 L518.1,540.8 C518.2,540.7 518.2,540.6 518.3,540.5 C519.1,541 520,541.2 521,541.2 C524,541.2 526.5,538.7 526.5,535.7 C526.5,532.7 524,530.2 521,530.2 C518,530.2 515.5,532.7 515.5,535.7 C515.5,536.7 515.8,537.6 516.2,538.4 C516.1,538.5 516,538.5 515.9,538.6 L484.3,570.1 L434.4,570.1 L434.4,565.1 L481,565.1 C481.4,565.1 481.8,564.9 482.1,564.7 L510.1,536.7 C510.4,536.4 510.5,536 510.5,535.6 L510.5,532.2 L518.1,524.6 C518.2,524.5 518.2,524.4 518.3,524.3 C519.1,524.8 520,525 521,525 C524,525 526.5,522.5 526.5,519.5 C526.5,516.5 524,514 521,514 C518,514 515.5,516.5 515.5,519.5 C515.5,520.5 515.8,521.4 516.2,522.2 C516.1,522.3 516,522.3 515.9,522.4 L507.9,530.4 C507.6,530.7 507.5,531.1 507.5,531.5 L507.5,534.9 L480.4,562 L434.5,562 L434.5,557 L449,557 C449.4,557 449.8,556.8 450.1,556.6 L453.7,553 L467.8,553 C468.5,555.3 470.6,557 473.1,557 C476.1,557 478.6,554.5 478.6,551.5 C478.6,548.5 476.1,546 473.1,546 C470.6,546 468.5,547.7 467.8,550 L453,550 C452.6,550 452.2,550.2 451.9,550.4 L448.3,554 L434.2,554 C433.7,552.2 432.2,550.7 430.4,550.2 L430.4,468.1 L450,448.5 C450.3,448.2 450.4,447.8 450.4,447.4 L450.4,428.7 C452.7,428 454.4,425.9 454.4,423.4 C454.4,420.4 451.9,417.9 448.9,417.9 C445.9,417.9 443.4,420.4 443.4,423.4 C443.4,425.9 445.1,428 447.4,428.7 L447.4,446.8 L427.8,466.4 C427.5,466.7 427.4,467.1 427.4,467.5 L427.4,550 L422.4,550 L422.4,464.2 L438,448.6 C438.3,448.3 438.4,447.9 438.4,447.5 L438.4,440.8 C440.7,440.1 442.4,438 442.4,435.5 C442.4,432.5 439.9,430 436.9,430 C433.9,430 431.4,432.5 431.4,435.5 C431.4,438 433.1,440.1 435.4,440.8 L435.4,446.9 L419.8,462.5 C419.5,462.8 419.4,463.2 419.4,463.6 L419.4,550.1 L414.4,550.1 L414.4,483.6 C414.4,483.2 414.2,482.8 414,482.5 L318.4,387 L318.4,217.5 L323.4,217.5 L323.4,383.9 C323.4,384.3 323.6,384.7 323.8,385 L339.8,401 C340.1,401.3 340.5,401.4 340.9,401.4 L356.9,401.4 L392.9,401.4 C393.3,401.4 393.7,401.2 394,401 L397.6,397.4 L403.7,397.4 C404.4,399.7 406.5,401.4 409,401.4 C412,401.4 414.5,398.9 414.5,395.9 C414.5,392.9 412,390.4 409,390.4 C406.5,390.4 404.4,392.1 403.7,394.4 L397,394.4 C396.6,394.4 396.2,394.6 395.9,394.8 L392.3,398.4 L357,398.4 L341.6,398.4 L326.5,383.3 L326.5,217.5 L331.5,217.5 L331.5,379.9 C331.5,380.3 331.7,380.7 331.9,381 L343.9,393 C344.2,393.3 344.6,393.4 345,393.4 L389,393.4 C389.4,393.4 389.8,393.2 390.1,393 L397.7,385.4 L431.8,385.4 C432.5,387.7 434.6,389.4 437.1,389.4 C440.1,389.4 442.6,386.9 442.6,383.9 C442.6,380.9 440.1,378.4 437.1,378.4 C434.6,378.4 432.5,380.1 431.8,382.4 L397,382.4 C396.6,382.4 396.2,382.6 395.9,382.8 L388.3,390.4 L345.5,390.4 L334.4,379.3 L334.4,217.5 L339.4,217.5 L339.4,375.9 C339.4,376.3 339.6,376.7 339.8,377 L343.8,381 C344.1,381.3 344.5,381.4 344.9,381.4 L375.6,381.4 C376.3,383.7 378.4,385.4 380.9,385.4 C383.9,385.4 386.4,382.9 386.4,379.9 C386.4,376.9 383.9,374.4 380.9,374.4 C378.4,374.4 376.3,376.1 375.6,378.4 L345.5,378.4 L342.4,375.3 L342.4,217.5 L347.4,217.5 L347.4,352 C347.4,352.4 347.6,352.8 347.8,353.1 L351.4,356.7 L351.4,362.8 C349.1,363.5 347.4,365.6 347.4,368.1 C347.4,371.1 349.9,373.6 352.9,373.6 C355.9,373.6 358.4,371.1 358.4,368.1 C358.4,365.6 356.7,363.5 354.4,362.8 L354.4,356.1 C354.4,355.7 354.2,355.3 354,355 L350.4,351.4 L350.4,217.6 L355.4,217.6 L355.4,296.1 C355.4,296.5 355.6,296.9 355.8,297.2 L363.8,305.2 C364.1,305.5 364.5,305.6 364.9,305.6 L371.4,305.6 L371.4,310.6 L369,310.6 C368.2,310.6 367.5,311.3 367.5,312.1 C367.5,312.9 368.2,313.6 369,313.6 L371.5,313.6 L371.5,318.6 L366.3,318.6 C365.6,316.3 363.5,314.6 361,314.6 C358,314.6 355.5,317.1 355.5,320.1 C355.5,323.1 358,325.6 361,325.6 C363.5,325.6 365.6,323.9 366.3,321.6 L371.5,321.6 L371.5,326.6 L369,326.6 C368.2,326.6 367.5,327.3 367.5,328.1 C367.5,328.9 368.2,329.6 369,329.6 L371.5,329.6 L371.5,334.6 L366.3,334.6 C365.6,332.3 363.5,330.6 361,330.6 C358,330.6 355.5,333.1 355.5,336.1 C355.5,339.1 358,341.6 361,341.6 C363.5,341.6 365.6,339.9 366.3,337.6 L371.7,337.6 C372.2,339.4 373.7,340.9 375.5,341.4 L375.5,344.1 C375.5,344.9 376.2,345.6 377,345.6 C377.8,345.6 378.5,344.9 378.5,344.1 L378.5,341.6 L383.5,341.6 L383.5,344.1 C383.5,344.9 384.2,345.6 385,345.6 C385.8,345.6 386.5,344.9 386.5,344.1 L386.5,341.6 L391.5,341.6 L391.5,346.8 C389.2,347.5 387.5,349.6 387.5,352.1 C387.5,355.1 390,357.6 393,357.6 C396,357.6 398.5,355.1 398.5,352.1 C398.5,349.6 396.8,347.5 394.5,346.8 L394.5,341.6 L399.5,341.6 L399.5,344.1 C399.5,344.9 400.2,345.6 401,345.6 C401.8,345.6 402.5,344.9 402.5,344.1 L402.5,341.6 L407.5,341.6 L407.5,344.1 C407.5,344.5 407.7,344.9 407.9,345.2 L415.9,353.2 C416.2,353.5 416.6,353.6 417,353.6 L419.7,353.6 C420.4,355.9 422.5,357.6 425,357.6 C428,357.6 430.5,355.1 430.5,352.1 C430.5,349.1 428,346.6 425,346.6 C422.5,346.6 420.4,348.3 419.7,350.6 L417.6,350.6 L410.5,343.5 L410.5,341.4 C412.3,340.9 413.8,339.4 414.3,337.6 L417,337.6 C417.8,337.6 418.5,336.9 418.5,336.1 C418.5,335.3 417.8,334.6 417,334.6 L414.5,334.6 L414.5,329.6 L560.4,329.6 L591.5,360.7 L591.5,452 C591.5,452.4 591.7,452.8 591.9,453.1 L663.9,525.1 C664.2,525.4 664.6,525.5 665,525.5 L737,525.5 C737.4,525.5 737.8,525.3 738.1,525.1 L757.7,505.5 L796.5,505.5 L828.1,537 C828.4,537.3 828.8,537.4 829.2,537.4 L881.2,537.4 C881.6,537.4 882,537.2 882.3,537 L886.3,533 C886.6,532.7 886.7,532.3 886.7,531.9 L886.7,525.2 C889,524.5 890.7,522.4 890.7,519.9 C890.7,516.9 888.2,514.4 885.2,514.4 C882.2,514.4 879.7,516.9 879.7,519.9 C879.7,522.4 881.4,524.5 883.7,525.2 L883.7,531.3 L880.6,534.4 L829.8,534.4 L798.2,502.8 C797.9,502.5 797.5,502.4 797.1,502.4 L757.1,502.4 C756.7,502.4 756.3,502.6 756,502.8 L736.4,522.4 L665.6,522.4 L594.5,451.3 L594.5,360 C594.5,359.6 594.3,359.2 594.1,358.9 L562.1,326.9 C561.8,326.6 561.4,326.5 561,326.5 L414.5,326.5 L414.5,321.5 L564.4,321.5 L599.5,356.6 L599.5,447.9 C599.5,448.3 599.7,448.7 599.9,449 L647.9,497 C648.2,497.3 648.6,497.4 649,497.4 L800.4,497.4 L812,509 C812.3,509.3 812.7,509.4 813.1,509.4 L819.8,509.4 C820.5,511.7 822.6,513.4 825.1,513.4 C828.1,513.4 830.6,510.9 830.6,507.9 C830.6,504.9 828.1,502.4 825.1,502.4 C822.6,502.4 820.5,504.1 819.8,506.4 L813.7,506.4 L802.1,494.8 C801.8,494.5 801.4,494.4 801,494.4 L649.6,494.4 L602.5,447.3 L602.5,356 C602.5,355.6 602.3,355.2 602.1,354.9 L566.1,318.9 C565.8,318.6 565.4,318.5 565,318.5 L414.5,318.5 L414.5,313.5 L568.4,313.5 L607.5,352.6 L607.5,443.9 C607.5,444.3 607.7,444.7 607.9,445 L651.9,489 C652.2,489.3 652.6,489.4 653,489.4 L804.4,489.4 L812,497 C812.3,497.3 812.7,497.4 813.1,497.4 L847.8,497.4 C848.5,499.7 850.6,501.4 853.1,501.4 C856.1,501.4 858.6,498.9 858.6,495.9 C858.6,492.9 856.1,490.4 853.1,490.4 C850.6,490.4 848.5,492.1 847.8,494.4 L813.7,494.4 L806.1,486.8 C805.8,486.5 805.4,486.4 805,486.4 L653.6,486.4 L610.5,443.3 L610.5,352 C610.5,351.6 610.3,351.2 610.1,350.9 L570.1,310.9 C569.8,310.6 569.4,310.5 569,310.5 L414.5,310.5 L414.5,305.5 L572.4,305.5 L615.5,348.6 L615.5,439.9 C615.5,440.3 615.7,440.7 615.9,441 L631.9,457 C632.2,457.3 632.6,457.4 633,457.4 L640.4,457.4 L644,461 C644.1,461.1 644.2,461.1 644.3,461.2 C643.8,462 643.6,462.9 643.6,463.9 C643.6,466.9 646.1,469.4 649.1,469.4 C652.1,469.4 654.6,466.9 654.6,463.9 C654.6,460.9 652.1,458.4 649.1,458.4 C648.1,458.4 647.2,458.7 646.4,459.1 C646.3,459 646.3,458.9 646.2,458.8 L642.2,454.8 C641.9,454.5 641.5,454.4 641.1,454.4 L633.7,454.4 L618.6,439.3 L618.6,348 C618.6,347.6 618.4,347.2 618.2,346.9 L574.2,302.9 C573.9,302.6 573.5,302.5 573.1,302.5 L414.3,302.5 C413.8,300.7 412.3,299.2 410.5,298.7 L410.5,296.6 L413.6,293.5 L447.7,293.5 C448.4,295.8 450.5,297.5 453,297.5 C456,297.5 458.5,295 458.5,292 C458.5,289 456,286.5 453,286.5 C450.5,286.5 448.4,288.2 447.7,290.5 L413,290.5 C412.6,290.5 412.2,290.7 411.9,290.9 L407.9,294.9 C407.6,295.2 407.5,295.6 407.5,296 L407.5,298.5 L402.5,298.5 L402.5,296 C402.5,295.2 401.8,294.5 401,294.5 C400.2,294.5 399.5,295.2 399.5,296 L399.5,298.5 L394.5,298.5 L394.5,296 C394.5,295.2 393.8,294.5 393,294.5 C392.2,294.5 391.5,295.2 391.5,296 L391.5,298.5 L386.5,298.5 L386.5,296 C386.5,295.2 385.8,294.5 385,294.5 C384.2,294.5 383.5,295.2 383.5,296 L383.5,298.5 L378.5,298.5 L378.5,296 C378.5,295.6 378.3,295.2 378.1,294.9 L374.5,291.3 L374.5,277.2 C376.8,276.5 378.5,274.4 378.5,271.9 C378.5,268.9 376,266.4 373,266.4 C370,266.4 367.5,268.9 367.5,271.9 C367.5,274.4 369.2,276.5 371.5,277.2 L371.5,291.9 C371.5,292.3 371.7,292.7 371.9,293 L375.5,296.6 L375.5,298.7 C373.7,299.2 372.2,300.7 371.7,302.5 L365.6,302.5 L358.5,295.4 L358.5,217.3 C360.3,216.8 361.8,215.3 362.3,213.5 L380.4,213.5 L387.5,220.6 L387.5,234.7 C385.2,235.3 383.5,237.5 383.5,240 C383.5,243 386,245.5 389,245.5 C392,245.5 394.5,243 394.5,240 C394.5,237.5 392.8,235.4 390.5,234.7 L390.5,220 C390.5,219.6 390.3,219.2 390.1,218.9 L382.1,210.9 C381.8,210.6 381.4,210.5 381,210.5 L362.5,210.5 L362.5,205.5 L393,205.5 C393.4,205.5 393.8,205.3 394.1,205.1 L426.1,173.1 C426.4,172.8 426.5,172.4 426.5,172 L426.5,112 L423.5,112 L423.5,171.4 L392.4,202.5 L362.5,202.5 L362.5,197.5 L389,197.5 C389.4,197.5 389.8,197.3 390.1,197.1 L418.1,169.1 C418.4,168.8 418.5,168.4 418.5,168 L418.5,112 L415.5,112 L415.5,167.4 L388.4,194.5 L362.5,194.5 L362.5,189.5 L385,189.5 C385.4,189.5 385.8,189.3 386.1,189.1 L410.1,165.1 C410.4,164.8 410.5,164.4 410.5,164 L410.5,112 L407.5,112 L407.5,163.4 L384.4,186.5 L362.5,186.5 L362.5,181.5 L381,181.5 C381.4,181.5 381.8,181.3 382.1,181.1 L402.1,161.1 C402.4,160.8 402.5,160.4 402.5,160 L402.5,112 L399.5,112 L399.5,159.4 L380.4,178.5 L362.5,178.5 L362.5,173.5 L377,173.5 C377.4,173.5 377.8,173.3 378.1,173.1 L394.1,157.1 C394.4,156.8 394.5,156.4 394.5,156 L394.5,112 L391.5,112 L391.5,155.4 L376.4,170.5 L362.3,170.5 C361.8,168.7 360.3,167.2 358.5,166.7 L358.5,112 L355.5,112 L355.5,166.5 L350.5,166.5 L350.5,112 L347.5,112 L347.5,166.5 L342.5,166.5 L342.5,112 L339.5,112 L339.5,166.5 L334.5,166.5 L334.5,112 L331.5,112 L331.5,166.5 L326.5,166.5 L326.5,112 L323.5,112 L323.5,166.5 L318.5,166.5 L318.5,112 L315.5,112 L315.5,166.7 C313.7,167.2 312.2,168.7 311.7,170.5 L309,170.5 C308.2,170.5 307.5,171.2 307.5,172 C307.5,172.8 308.2,173.5 309,173.5 L311.5,173.5 L311.5,178.5 L309,178.5 C308.2,178.5 307.5,179.2 307.5,180 C307.5,180.8 308.2,181.5 309,181.5 L311.5,181.5 L311.5,186.5 L309,186.5 C308.2,186.5 307.5,187.2 307.5,188 C307.5,188.8 308.2,189.5 309,189.5 L311.5,189.5 L311.5,194.5 L309,194.5 C308.2,194.5 307.5,195.2 307.5,196 C307.5,196.8 308.2,197.5 309,197.5 L311.5,197.5 L311.5,202.5 L309,202.5 C308.2,202.5 307.5,203.2 307.5,204 C307.5,204.8 308.2,205.5 309,205.5 L311.5,205.5 L311.5,210.5 L309,210.5 C308.2,210.5 307.5,211.2 307.5,212 C307.5,212.8 308.2,213.5 309,213.5 L311.7,213.5 C312.2,215.3 313.7,216.8 315.5,217.3 L315.5,388 C315.5,388.4 315.7,388.8 315.9,389.1 L411.5,484.6 L411.5,550.5 L406.5,550.5 L406.5,488 C406.5,487.6 406.3,487.2 406.1,486.9 L310.5,391.4 L310.5,251.9 C310.5,251.5 310.3,251.1 310.1,250.8 L306.5,247.2 L306.5,229.1 C308.8,228.4 310.5,226.3 310.5,223.8 C310.5,220.8 308,218.3 305,218.3 C302,218.3 299.5,220.8 299.5,223.8 C299.5,226.3 301.2,228.4 303.5,229.1 L303.5,248 C303.5,248.4 303.7,248.8 303.9,249.1 L307.5,252.7 L307.5,392 C307.5,392.4 307.7,392.8 307.9,393.1 L403.5,488.6 L403.5,550.5 L398.5,550.5 L398.5,492 C398.5,491.6 398.3,491.2 398.1,490.9 L302.5,395.4 L302.5,256.1 C302.5,255.7 302.3,255.3 302.1,255 L294.5,247.4 L294.5,241.3 C296.8,240.6 298.5,238.5 298.5,236 C298.5,233 296,230.5 293,230.5 C290,230.5 287.5,233 287.5,236 C287.5,238.5 289.2,240.6 291.5,241.3 L291.5,248 C291.5,248.4 291.7,248.8 291.9,249.1 L299.5,256.7 L299.5,396 C299.5,396.4 299.7,396.8 299.9,397.1 L395.5,492.6 L395.5,550.5 L390.5,550.5 L390.5,496 C390.5,495.6 390.3,495.2 390.1,494.9 L294.5,399.4 L294.5,260.1 C294.5,259.7 294.3,259.3 294.1,259 L282.5,247.4 L282.5,229.3 C284.8,228.6 286.5,226.5 286.5,224 C286.5,221 284,218.5 281,218.5 C278,218.5 275.5,221 275.5,224 C275.5,226.5 277.2,228.6 279.5,229.3 L279.5,248 C279.5,248.4 279.7,248.8 279.9,249.1 L291.5,260.7 L291.5,400 C291.5,400.4 291.7,400.8 291.9,401.1 L387.5,496.6 L387.5,550.7 C385.7,551.2 384.2,552.7 383.7,554.5 L381.6,554.5 L378.5,551.4 L378.5,509.3 C380.8,508.6 382.5,506.5 382.5,504 C382.5,501 380,498.5 377,498.5 C374,498.5 371.5,501 371.5,504 C371.5,506.5 373.2,508.6 375.5,509.3 L375.5,552 C375.5,552.4 375.7,552.8 375.9,553.1 L379.9,557.1 C380.2,557.4 380.6,557.5 381,557.5 L383.5,557.5 L383.5,562.5 L377.6,562.5 L370.5,555.4 L370.5,524 C370.5,523.6 370.3,523.2 370.1,522.9 L366.5,519.3 L366.5,483.9 C366.5,483.5 366.3,483.1 366.1,482.8 L286.5,403.3 L286.5,295.9 L286.5,263.9 C286.5,263.5 286.3,263.1 286.1,262.8 L270.5,247.2 L270.5,241.1 C272.8,240.4 274.5,238.3 274.5,235.8 C274.5,232.8 272,230.3 269,230.3 C266,230.3 263.5,232.8 263.5,235.8 C263.5,238.3 265.2,240.4 267.5,241.1 L267.5,247.8 C267.5,248.2 267.7,248.6 267.9,248.9 L283.5,264.5 L283.5,295.9 L283.5,403.9 C283.5,404.3 283.7,404.7 283.9,405 L363.5,484.5 L363.5,519.9 C363.5,520.3 363.7,520.7 363.9,521 L367.5,524.6 L367.5,556 C367.5,556.4 367.7,556.8 367.9,557.1 L375.9,565.1 C376.2,565.4 376.6,565.5 377,565.5 L383.5,565.5 L383.5,570.5 L373.6,570.5 L358.5,555.4 L358.5,545.3 C360.8,544.6 362.5,542.5 362.5,540 C362.5,537 360,534.5 357,534.5 C354,534.5 351.5,537 351.5,540 C351.5,542.5 353.2,544.6 355.5,545.3 L355.5,556 C355.5,556.4 355.7,556.8 355.9,557.1 L371.9,573.1 C372.2,573.4 372.6,573.5 373,573.5 L383.5,573.5 L383.5,578.5 L369.6,578.5 L346.5,555.4 L346.5,532.7 L358.1,521.1 C358.4,520.8 358.5,520.4 358.5,520 L358.5,488 C358.5,487.6 358.3,487.2 358.1,486.9 L278.5,407.4 L278.5,300.1 C278.5,299.7 278.3,299.3 278.1,299 L222.1,243 C221.8,242.7 221.4,242.6 221,242.6 L133,242.6 L133,245.6 L220.4,245.6 L275.5,300.7 L275.5,408 C275.5,408.4 275.7,408.8 275.9,409.1 L355.5,488.6 L355.5,519.3 L343.9,530.9 C343.6,531.2 343.5,531.6 343.5,532 L343.5,556 C343.5,556.4 343.7,556.8 343.9,557.1 L367.9,581.1 C368.2,581.4 368.6,581.5 369,581.5 L383.5,581.5 L383.5,586.5 L365.6,586.5 L338.5,559.4 L338.5,528.7 L350.1,517.1 C350.4,516.8 350.5,516.4 350.5,516 L350.5,492 C350.5,491.6 350.3,491.2 350.1,490.9 L298.1,438.9 C297.8,438.6 297.4,438.5 297,438.5 L277.6,438.5 L262.5,423.4 L262.5,307.9 C262.5,307.5 262.3,307.1 262.1,306.8 L214.1,258.8 C213.8,258.5 213.4,258.4 213,258.4 L133,258.4 L133,261.4 L212.4,261.4 L259.5,308.5 L259.5,423.8 C259.5,424.2 259.7,424.6 259.9,424.9 L275.9,440.9 C276.2,441.2 276.6,441.3 277,441.3 L296.4,441.3 L347.5,492.4 L347.5,515.2 L335.9,526.8 C335.6,527.1 335.5,527.5 335.5,527.9 L335.5,559.9 C335.5,560.3 335.7,560.7 335.9,561 L363.9,589 C364.2,589.3 364.6,589.4 365,589.4 L383.5,589.4 L383.5,594.4 L361.6,594.4 L330.5,563.3 L330.5,524.6 L342.1,513 C342.4,512.7 342.5,512.3 342.5,511.9 L342.5,495.9 C342.5,495.5 342.3,495.1 342.1,494.8 L310.1,462.8 C309.8,462.5 309.4,462.4 309,462.4 L289.6,462.4 L254.5,427.3 L254.5,312 C254.5,311.6 254.3,311.2 254.1,310.9 L210.1,266.9 C209.8,266.6 209.4,266.5 209,266.5 L133,266.5 L133,269.5 L208.4,269.5 L251.5,312.6 L251.5,427.9 C251.5,428.3 251.7,428.7 251.9,429 L287.9,465 C288.2,465.3 288.6,465.4 289,465.4 L308.4,465.4 L339.5,496.5 L339.5,511.3 L327.9,522.9 C327.6,523.2 327.5,523.6 327.5,524 L327.5,564 C327.5,564.4 327.7,564.8 327.9,565.1 L359.9,597.1 C360.2,597.4 360.6,597.5 361,597.5 L383.7,597.5 C384.2,599.3 385.7,600.8 387.5,601.3 L387.5,615.4 L379.9,623 L371.9,631 C371.8,631.1 371.8,631.2 371.7,631.3 C370.9,630.8 370,630.6 369,630.6 C366,630.6 363.5,633.1 363.5,636.1 C363.5,639.1 366,641.6 369,641.6 C372,641.6 374.5,639.1 374.5,636.1 C374.5,635.1 374.2,634.2 373.8,633.4 C373.9,633.3 374,633.3 374.1,633.2 L382.1,625.2 L390.1,617.2 C390.4,616.9 390.5,616.5 390.5,616.1 L390.5,601.6 L395.5,601.6 L395.5,623.5 L379.9,639.1 C379.6,639.4 379.5,639.8 379.5,640.2 L379.5,656.2 C379.5,656.6 379.7,657 379.9,657.3 L391.5,668.9 L391.5,712.3 L391.5,714.8 L386.5,714.8 L386.5,712.3 L386.5,672.3 C386.5,671.9 386.3,671.5 386.1,671.2 L374.1,659.2 C374,659.1 373.9,659.1 373.8,659 C374.3,658.2 374.5,657.3 374.5,656.3 C374.5,653.3 372,650.8 369,650.8 C366,650.8 363.5,653.3 363.5,656.3 C363.5,659.3 366,661.8 369,661.8 C370,661.8 370.9,661.5 371.7,661.1 C371.8,661.2 371.8,661.3 371.9,661.4 L383.5,673 L383.5,712.4 L383.5,715.1 C381.7,715.6 380.2,717.1 379.7,718.9 L377,718.9 C376.2,718.9 375.5,719.6 375.5,720.4 C375.5,721.2 376.2,721.9 377,721.9 L379.5,721.9 L379.5,726.9 L377,726.9 C376.2,726.9 375.5,727.6 375.5,728.4 C375.5,729.2 376.2,729.9 377,729.9 L379.5,729.9 L379.5,734.9 L377,734.9 C376.2,734.9 375.5,735.6 375.5,736.4 C375.5,737.2 376.2,737.9 377,737.9 L379.5,737.9 L379.5,742.9 L377,742.9 C376.2,742.9 375.5,743.6 375.5,744.4 C375.5,745.2 376.2,745.9 377,745.9 L379.7,745.9 C380.2,747.7 381.7,749.2 383.5,749.7 L383.5,752.4 C383.5,753.2 384.2,753.9 385,753.9 C385.8,753.9 386.5,753.2 386.5,752.4 L386.5,749.9 L391.5,749.9 L391.5,752.4 C391.5,753.2 392.2,753.9 393,753.9 C393.8,753.9 394.5,753.2 394.5,752.4 L394.5,749.9 L399.5,749.9 L399.5,752.4 C399.5,753.2 400.2,753.9 401,753.9 C401.8,753.9 402.5,753.2 402.5,752.4 L402.5,749.9 L407.5,749.9 L407.5,752.4 C407.5,753.2 408.2,753.9 409,753.9 C409.8,753.9 410.5,753.2 410.5,752.4 L410.5,749.7 C412.3,749.2 413.8,747.7 414.3,745.9 L417,745.9 C417.8,745.9 418.5,745.2 418.5,744.4 C418.5,743.6 417.8,742.9 417,742.9 L414.5,742.9 L414.5,737.9 L417,737.9 C417.8,737.9 418.5,737.2 418.5,736.4 C418.5,735.6 417.8,734.9 417,734.9 L414.5,734.9 L414.5,729.9 L417,729.9 C417.8,729.9 418.5,729.2 418.5,728.4 C418.5,727.6 417.8,726.9 417,726.9 L414.5,726.9 L414.5,721.9 L417,721.9 C417.8,721.9 418.5,721.2 418.5,720.4 C418.5,719.6 417.8,718.9 417,718.9 L414.3,718.9 C413.8,717.1 412.3,715.6 410.5,715.1 L410.5,697 L418.1,689.4 C418.4,689.1 418.5,688.7 418.5,688.3 L418.5,657.6 C420.8,656.9 422.5,654.8 422.5,652.3 C422.5,649.3 420,646.8 417,646.8 C414,646.8 411.5,649.3 411.5,652.3 C411.5,654.8 413.2,656.9 415.5,657.6 L415.5,687.7 L407.9,695.3 C407.6,695.6 407.5,696 407.5,696.4 L407.5,714.9 L402.5,714.9 L402.5,693 L406.1,689.4 C406.4,689.1 406.5,688.7 406.5,688.3 L406.5,685.6 C408.8,684.9 410.5,682.8 410.5,680.3 C410.5,677.3 408,674.8 405,674.8 C402,674.8 399.5,677.3 399.5,680.3 C399.5,682.8 401.2,684.9 403.5,685.6 L403.5,687.7 L399.9,691.3 C399.6,691.6 399.5,692 399.5,692.4 L399.5,714.9 L394.5,714.9 L394.5,712.4 L394.5,668.4 C394.5,668 394.3,667.6 394.1,667.3 L382.5,655.7 L382.5,640.9 L398.1,625.3 C398.4,625 398.5,624.6 398.5,624.2 L398.5,601.7 L403.5,601.7 L403.5,627.6 L391.9,639.2 C391.6,639.5 391.5,639.9 391.5,640.3 L391.5,643 C389.2,643.7 387.5,645.8 387.5,648.3 C387.5,651.3 390,653.8 393,653.8 C396,653.8 398.5,651.3 398.5,648.3 C398.5,645.8 396.8,643.7 394.5,643 L394.5,640.9 L406.1,629.3 C406.4,629 406.5,628.6 406.5,628.2 L406.5,601.7 L411.5,601.7 L411.5,631.6 L403.9,639.2 C403.6,639.5 403.5,639.9 403.5,640.3 L403.5,659 C401.2,659.7 399.5,661.8 399.5,664.3 C399.5,667.3 402,669.8 405,669.8 C408,669.8 410.5,667.3 410.5,664.3 C410.5,661.8 408.8,659.7 406.5,659 L406.5,640.9 L414.1,633.3 C414.4,633 414.5,632.6 414.5,632.2 L414.5,601.7 L419.5,601.7 L419.5,632.2 C419.5,632.6 419.7,633 419.9,633.3 L427.5,640.9 L427.5,804.2 C427.5,804.6 427.7,805 427.9,805.3 L455.9,833.3 C456.2,833.6 456.6,833.7 457,833.7 L479.5,833.7 L479.5,838.7 L453.6,838.7 L422.5,807.6 L422.5,792.2 C422.5,791.8 422.3,791.4 422.1,791.1 L402.5,771.5 L402.5,769 C404.8,768.3 406.5,766.2 406.5,763.7 C406.5,760.7 404,758.2 401,758.2 C398,758.2 395.5,760.7 395.5,763.7 C395.5,766.2 397.2,768.3 399.5,769 L399.5,771.7 C399.5,772.1 399.7,772.5 399.9,772.8 L419.5,792.4 L419.5,807.8 C419.5,808.2 419.7,808.6 419.9,808.9 L451.9,840.9 C452.2,841.2 452.6,841.3 453,841.3 L479.5,841.3 L479.5,846.3 L449.6,846.3 L414.5,811.2 L414.5,795.8 C414.5,795.4 414.3,795 414.1,794.7 L366.5,747.2 L366.5,716.5 L378.1,704.9 C378.4,704.6 378.5,704.2 378.5,703.8 L378.5,683.8 C378.5,683.4 378.3,683 378.1,682.7 L374.1,678.7 C374,678.6 373.9,678.6 373.8,678.5 C374.3,677.7 374.5,676.8 374.5,675.8 C374.5,672.8 372,670.3 369,670.3 C366,670.3 363.5,672.8 363.5,675.8 C363.5,678.8 366,681.3 369,681.3 C370,681.3 370.9,681 371.7,680.6 C371.8,680.7 371.8,680.8 371.9,680.9 L375.5,684.5 L375.5,703.2 L363.9,714.8 C363.6,715.1 363.5,715.5 363.5,715.9 L363.5,747.9 C363.5,748.3 363.7,748.7 363.9,749 L411.5,796.5 L411.5,811.9 C411.5,812.3 411.7,812.7 411.9,813 L447.9,849 C448.2,849.3 448.6,849.4 449,849.4 L479.5,849.4 L479.5,854.4 L445.6,854.4 L406.5,815.3 L406.5,799.9 C406.5,799.5 406.3,799.1 406.1,798.8 L358.5,751.3 L358.5,704.6 L362.1,701 C362.2,700.9 362.2,700.8 362.3,700.7 C363.1,701.2 364,701.4 365,701.4 C368,701.4 370.5,698.9 370.5,695.9 C370.5,692.9 368,690.4 365,690.4 C362,690.4 359.5,692.9 359.5,695.9 C359.5,696.9 359.8,697.8 360.2,698.6 C360.1,698.7 360,698.7 359.9,698.8 L355.9,702.8 C355.6,703.1 355.5,703.5 355.5,703.9 L355.5,751.9 C355.5,752.3 355.7,752.7 355.9,753 L403.5,800.5 L403.5,815.9 C403.5,816.3 403.7,816.7 403.9,817 L443.9,857 C444.2,857.3 444.6,857.4 445,857.4 L479.5,857.4 L479.5,862.4 L441.6,862.4 L398.5,819.3 L398.5,803.9 C398.5,803.5 398.3,803.1 398.1,802.8 L350.5,755.3 L350.5,681.2 C352.8,680.5 354.5,678.4 354.5,675.9 C354.5,672.9 352,670.4 349,670.4 C346,670.4 343.5,672.9 343.5,675.9 C343.5,678.4 345.2,680.5 347.5,681.2 L347.5,755.9 C347.5,756.3 347.7,756.7 347.9,757 L395.5,804.5 L395.5,819.9 C395.5,820.3 395.7,820.7 395.9,821 L439.9,865 C440.2,865.3 440.6,865.4 441,865.4 L479.5,865.4 L479.5,867.9 C479.5,870.9 482,873.4 485,873.4 L487.5,873.4 L487.5,911.9 L490.5,911.9 L490.5,873.4 L495.5,873.4 L495.5,911.9 L498.5,911.9 L498.5,873.4 L503.5,873.4 L503.5,911.9 L506.5,911.9 L506.5,873.4 L511.5,873.4 L511.5,911.9 L514.5,911.9 L514.5,873.4 L519.5,873.4 L519.5,911.9 L522.5,911.9 L522.5,873.4 L527.5,873.4 L527.5,911.9 L530.5,911.9 L530.5,873.4 L533,873.4 L533,873.2 Z M518.5,675.8 C518.5,674.4 519.6,673.3 521,673.3 C522.4,673.3 523.5,674.4 523.5,675.8 C523.5,677.2 522.4,678.3 521,678.3 C519.6,678.3 518.5,677.2 518.5,675.8 L518.5,675.8 Z M689,677.3 C690.4,677.3 691.5,678.4 691.5,679.8 C691.5,681.2 690.4,682.3 689,682.3 C687.6,682.3 686.5,681.2 686.5,679.8 C686.5,678.4 687.6,677.3 689,677.3 L689,677.3 Z M486.5,671.8 C486.5,670.4 487.6,669.3 489,669.3 C490.4,669.3 491.5,670.4 491.5,671.8 C491.5,673.2 490.4,674.3 489,674.3 C487.6,674.3 486.5,673.2 486.5,671.8 L486.5,671.8 Z M470.5,671.8 C470.5,670.4 471.6,669.3 473,669.3 C474.4,669.3 475.5,670.4 475.5,671.8 C475.5,673.2 474.4,674.3 473,674.3 C471.6,674.3 470.5,673.2 470.5,671.8 L470.5,671.8 Z M461,686.3 C459.6,686.3 458.5,685.2 458.5,683.8 C458.5,682.4 459.6,681.3 461,681.3 C462.4,681.3 463.5,682.4 463.5,683.8 C463.5,685.2 462.4,686.3 461,686.3 L461,686.3 L461,686.3 L461,686.3 Z M446.5,671.8 C446.5,670.4 447.6,669.3 449,669.3 C450.4,669.3 451.5,670.4 451.5,671.8 C451.5,673.2 450.4,674.3 449,674.3 C447.6,674.3 446.5,673.2 446.5,671.8 L446.5,671.8 Z M693,629.3 C694.4,629.3 695.5,630.4 695.5,631.8 C695.5,633.2 694.4,634.3 693,634.3 C691.6,634.3 690.5,633.2 690.5,631.8 C690.5,630.4 691.6,629.3 693,629.3 L693,629.3 Z M609,569.3 C610.4,569.3 611.5,570.4 611.5,571.8 C611.5,573.2 610.4,574.3 609,574.3 C607.6,574.3 606.5,573.2 606.5,571.8 C606.5,570.5 607.6,569.3 609,569.3 L609,569.3 Z M514.5,555.8 C514.5,554.4 515.6,553.3 517,553.3 C518.4,553.3 519.5,554.4 519.5,555.8 C519.5,557.2 518.4,558.3 517,558.3 C515.6,558.3 514.5,557.2 514.5,555.8 L514.5,555.8 Z M518.5,535.8 C518.5,534.4 519.6,533.3 521,533.3 C522.4,533.3 523.5,534.4 523.5,535.8 C523.5,537.2 522.4,538.3 521,538.3 C519.6,538.3 518.5,537.2 518.5,535.8 L518.5,535.8 Z M518.5,519.9 C518.5,518.5 519.6,517.4 521,517.4 C522.4,517.4 523.5,518.5 523.5,519.9 C523.5,521.3 522.4,522.4 521,522.4 C519.6,522.3 518.5,521.2 518.5,519.9 L518.5,519.9 Z M473,549.3 C474.4,549.3 475.5,550.4 475.5,551.8 C475.5,553.2 474.4,554.3 473,554.3 C471.6,554.3 470.5,553.2 470.5,551.8 C470.5,550.5 471.6,549.3 473,549.3 L473,549.3 Z M446.5,423.9 C446.5,422.5 447.6,421.4 449,421.4 C450.4,421.4 451.5,422.5 451.5,423.9 C451.5,425.3 450.4,426.4 449,426.4 C447.6,426.4 446.5,425.3 446.5,423.9 L446.5,423.9 Z M434.5,435.9 C434.5,434.5 435.6,433.4 437,433.4 C438.4,433.4 439.5,434.5 439.5,435.9 C439.5,437.3 438.4,438.4 437,438.4 C435.6,438.4 434.5,437.3 434.5,435.9 L434.5,435.9 Z M409,393.4 C410.4,393.4 411.5,394.5 411.5,395.9 C411.5,397.3 410.4,398.4 409,398.4 C407.6,398.4 406.5,397.3 406.5,395.9 C406.5,394.5 407.6,393.4 409,393.4 L409,393.4 Z M437,381.4 C438.4,381.4 439.5,382.5 439.5,383.9 C439.5,385.3 438.4,386.4 437,386.4 C435.6,386.4 434.5,385.3 434.5,383.9 C434.5,382.5 435.6,381.4 437,381.4 L437,381.4 Z M381,377.4 C382.4,377.4 383.5,378.5 383.5,379.9 C383.5,381.3 382.4,382.4 381,382.4 C379.6,382.4 378.5,381.3 378.5,379.9 C378.5,378.5 379.6,377.4 381,377.4 L381,377.4 Z M353,365.4 L353,365.4 C354.4,365.4 355.5,366.5 355.5,367.9 C355.5,369.3 354.4,370.4 353,370.4 C351.6,370.4 350.5,369.3 350.5,367.9 C350.5,366.5 351.6,365.4 353,365.4 L353,365.4 Z M393,349.4 L393,349.4 C394.4,349.4 395.5,350.5 395.5,351.9 C395.5,353.3 394.4,354.4 393,354.4 C391.6,354.4 390.5,353.3 390.5,351.9 C390.5,350.5 391.6,349.4 393,349.4 L393,349.4 Z M425,349.4 C426.4,349.4 427.5,350.5 427.5,351.9 C427.5,353.3 426.4,354.4 425,354.4 C423.6,354.4 422.5,353.3 422.5,351.9 C422.5,350.5 423.6,349.4 425,349.4 L425,349.4 Z M882.5,519.9 C882.5,518.5 883.6,517.4 885,517.4 C886.4,517.4 887.5,518.5 887.5,519.9 C887.5,521.3 886.4,522.4 885,522.4 C883.6,522.3 882.5,521.2 882.5,519.9 L882.5,519.9 Z M825,505.4 C826.4,505.4 827.5,506.5 827.5,507.9 C827.5,509.3 826.4,510.4 825,510.4 C823.6,510.4 822.5,509.3 822.5,507.9 C822.5,506.5 823.6,505.4 825,505.4 L825,505.4 Z M853,493.4 C854.4,493.4 855.5,494.5 855.5,495.9 C855.5,497.3 854.4,498.4 853,498.4 C851.6,498.4 850.5,497.3 850.5,495.9 C850.5,494.5 851.6,493.4 853,493.4 L853,493.4 Z M651.5,463.9 C651.5,465.3 650.4,466.4 649,466.4 C647.6,466.4 646.5,465.3 646.5,463.9 C646.5,462.5 647.6,461.4 649,461.4 C650.4,461.4 651.5,462.5 651.5,463.9 L651.5,463.9 Z M453,289.4 C454.4,289.4 455.5,290.5 455.5,291.9 C455.5,293.3 454.4,294.4 453,294.4 C451.6,294.4 450.5,293.3 450.5,291.9 C450.5,290.6 451.6,289.4 453,289.4 L453,289.4 Z M370.5,271.9 C370.5,270.5 371.6,269.4 373,269.4 C374.4,269.4 375.5,270.5 375.5,271.9 C375.5,273.3 374.4,274.4 373,274.4 C371.6,274.4 370.5,273.3 370.5,271.9 L370.5,271.9 Z M361,322.4 C359.6,322.4 358.5,321.3 358.5,319.9 C358.5,318.5 359.6,317.4 361,317.4 C362.4,317.4 363.5,318.5 363.5,319.9 L363.5,319.9 L363.5,319.9 C363.5,321.3 362.4,322.4 361,322.4 L361,322.4 Z M361,338.4 C359.6,338.4 358.5,337.3 358.5,335.9 C358.5,334.5 359.6,333.4 361,333.4 C362.4,333.4 363.5,334.5 363.5,335.9 L363.5,335.9 L363.5,335.9 C363.5,337.3 362.4,338.4 361,338.4 L361,338.4 Z M377,301.4 L409,301.4 C410.4,301.4 411.5,302.5 411.5,303.9 L411.5,303.9 L411.5,303.9 L411.5,311.9 L411.5,311.9 L411.5,311.9 L411.5,319.9 L411.5,319.9 L411.5,319.9 L411.5,327.9 L411.5,327.9 L411.5,327.9 L411.5,335.9 L411.5,335.9 L411.5,335.9 C411.5,337.3 410.4,338.4 409,338.4 L377,338.4 L377,338.4 L377,338.4 C375.6,338.4 374.5,337.3 374.5,335.9 L374.5,303.9 C374.5,302.6 375.6,301.4 377,301.4 L377,301.4 Z M391.5,240 C391.5,241.4 390.4,242.5 389,242.5 C387.6,242.5 386.5,241.4 386.5,240 C386.5,238.6 387.6,237.5 389,237.5 C390.4,237.5 391.5,238.6 391.5,240 L391.5,240 Z M317,214.5 C315.6,214.5 314.5,213.4 314.5,212 L314.5,172 C314.5,170.6 315.6,169.5 317,169.5 L317,169.5 L317,169.5 L325,169.5 L325,169.5 L325,169.5 L333,169.5 L333,169.5 L333,169.5 L341,169.5 L341,169.5 L341,169.5 L349,169.5 L349,169.5 L349,169.5 L357,169.5 L357,169.5 L357,169.5 C358.4,169.5 359.5,170.6 359.5,172 L359.5,172 L359.5,172 L359.5,180 L359.5,180 L359.5,180 L359.5,188 L359.5,188 L359.5,188 L359.5,196 L359.5,196 L359.5,196 L359.5,204 L359.5,204 L359.5,204 L359.5,212 L359.5,212 L359.5,212 C359.5,213.4 358.4,214.5 357,214.5 L341,214.5 L317,214.5 L317,214.5 L317,214.5 Z M305,226.5 L305,226.5 C303.6,226.5 302.5,225.4 302.5,224 C302.5,222.6 303.6,221.5 305,221.5 C306.4,221.5 307.5,222.6 307.5,224 C307.5,225.3 306.4,226.5 305,226.5 L305,226.5 Z M290.5,236 C290.5,234.6 291.6,233.5 293,233.5 C294.4,233.5 295.5,234.6 295.5,236 C295.5,237.4 294.4,238.5 293,238.5 C291.6,238.5 290.5,237.3 290.5,236 L290.5,236 Z M281,226.5 C279.6,226.5 278.5,225.4 278.5,224 C278.5,222.6 279.6,221.5 281,221.5 C282.4,221.5 283.5,222.6 283.5,224 C283.5,225.3 282.4,226.4 281,226.5 L281,226.5 L281,226.5 L281,226.5 Z M374.5,503.9 C374.5,502.5 375.6,501.4 377,501.4 C378.4,501.4 379.5,502.5 379.5,503.9 C379.5,505.3 378.4,506.4 377,506.4 C375.6,506.4 374.5,505.2 374.5,503.9 L374.5,503.9 Z M269,238.5 L269,238.5 C267.6,238.5 266.5,237.4 266.5,236 C266.5,234.6 267.6,233.5 269,233.5 C270.4,233.5 271.5,234.6 271.5,236 C271.5,237.3 270.4,238.4 269,238.5 L269,238.5 Z M354.5,539.8 C354.5,538.4 355.6,537.3 357,537.3 C358.4,537.3 359.5,538.4 359.5,539.8 C359.5,541.2 358.4,542.3 357,542.3 C355.6,542.3 354.5,541.2 354.5,539.8 L354.5,539.8 Z M429,598.3 L421,598.3 L421,598.3 L421,598.3 L413,598.3 L413,598.3 L413,598.3 L389,598.3 L389,598.3 L389,598.3 C387.6,598.3 386.5,597.2 386.5,595.8 L386.5,555.8 C386.5,554.4 387.6,553.3 389,553.3 L405,553.3 L405,553.3 L405,553.3 L429,553.3 C430.4,553.3 431.5,554.4 431.5,555.8 L431.5,595.8 C431.5,597.2 430.4,598.3 429,598.3 L429,598.3 L429,598.3 L429,598.3 Z M371.5,635.8 C371.5,637.2 370.4,638.3 369,638.3 C367.6,638.3 366.5,637.2 366.5,635.8 C366.5,634.4 367.6,633.3 369,633.3 C370.4,633.3 371.5,634.4 371.5,635.8 L371.5,635.8 Z M366.5,655.8 C366.5,654.4 367.6,653.3 369,653.3 C370.4,653.3 371.5,654.4 371.5,655.8 C371.5,657.2 370.4,658.3 369,658.3 C367.6,658.3 366.5,657.2 366.5,655.8 L366.5,655.8 Z M393,717.3 L393,717.3 L393,717.3 L401,717.3 L401,717.3 L401,717.3 L409,717.3 L409,717.3 L409,717.3 C410.4,717.3 411.5,718.4 411.5,719.8 L411.5,719.8 L411.5,719.8 L411.5,727.8 L411.5,727.8 L411.5,727.8 L411.5,743.8 C411.5,745.2 410.4,746.3 409,746.3 L385,746.3 C383.6,746.3 382.5,745.2 382.5,743.8 L382.5,719.8 C382.5,718.4 383.6,717.3 385,717.3 L385,717.3 L385,717.3 L393,717.3 Z M414.5,651.8 C414.5,650.4 415.6,649.3 417,649.3 C418.4,649.3 419.5,650.4 419.5,651.8 C419.5,653.2 418.4,654.3 417,654.3 C415.6,654.3 414.5,653.2 414.5,651.8 L414.5,651.8 Z M402.5,679.8 C402.5,678.4 403.6,677.3 405,677.3 C406.4,677.3 407.5,678.4 407.5,679.8 C407.5,681.2 406.4,682.3 405,682.3 C403.6,682.3 402.5,681.2 402.5,679.8 L402.5,679.8 Z M395.5,647.8 C395.5,649.2 394.4,650.3 393,650.3 C391.6,650.3 390.5,649.2 390.5,647.8 C390.5,646.4 391.6,645.3 393,645.3 C394.4,645.3 395.5,646.4 395.5,647.8 L395.5,647.8 Z M407.5,663.8 C407.5,665.2 406.4,666.3 405,666.3 C403.6,666.3 402.5,665.2 402.5,663.8 C402.5,662.4 403.6,661.3 405,661.3 C406.4,661.3 407.5,662.4 407.5,663.8 L407.5,663.8 Z M398.5,763.8 C398.5,762.4 399.6,761.3 401,761.3 C402.4,761.3 403.5,762.4 403.5,763.8 C403.5,765.2 402.4,766.3 401,766.3 C399.6,766.3 398.5,765.1 398.5,763.8 L398.5,763.8 Z M366.5,675.8 C366.5,674.4 367.6,673.3 369,673.3 C370.4,673.3 371.5,674.4 371.5,675.8 C371.5,677.2 370.4,678.3 369,678.3 C367.6,678.3 366.5,677.2 366.5,675.8 L366.5,675.8 Z M362.5,695.8 C362.5,694.4 363.6,693.3 365,693.3 C366.4,693.3 367.5,694.4 367.5,695.8 C367.5,697.2 366.4,698.3 365,698.3 C363.6,698.3 362.5,697.2 362.5,695.8 L362.5,695.8 Z M346.5,675.8 C346.5,674.4 347.6,673.3 349,673.3 C350.4,673.3 351.5,674.4 351.5,675.8 C351.5,677.2 350.4,678.3 349,678.3 C347.6,678.3 346.5,677.2 346.5,675.8 L346.5,675.8 Z M557,861.2 C558.4,861.2 559.5,862.3 559.5,863.7 C559.5,865.1 558.4,866.2 557,866.2 C555.6,866.2 554.5,865.1 554.5,863.7 L554.5,863.7 L554.5,863.7 C554.5,862.3 555.6,861.2 557,861.2 L557,861.2 Z M557,845.2 C558.4,845.2 559.5,846.3 559.5,847.7 C559.5,849.1 558.4,850.2 557,850.2 C555.6,850.2 554.5,849.1 554.5,847.7 C554.5,846.4 555.6,845.2 557,845.2 L557,845.2 Z M557,829.2 C558.4,829.2 559.5,830.3 559.5,831.7 C559.5,833.1 558.4,834.2 557,834.2 C555.6,834.2 554.5,833.1 554.5,831.7 C554.5,830.4 555.6,829.2 557,829.2 L557,829.2 Z M457.6,830.2 L430.5,803.1 L430.5,639.8 C430.5,639.4 430.3,639 430.1,638.7 L422.5,631.1 L422.5,601.2 L427.5,601.2 L427.5,627.7 C427.5,628.1 427.7,628.5 427.9,628.8 L435.5,636.4 L435.5,799.7 C435.5,800.1 435.7,800.5 435.9,800.8 L459.9,824.8 C460.2,825.1 460.6,825.2 461,825.2 L479.5,825.2 L479.5,830.2 L457.6,830.2 Z M489,870.2 L485,870.2 L485,870.2 C483.6,870.2 482.5,869.1 482.5,867.7 L482.5,819.7 C482.5,818.3 483.6,817.2 485,817.2 L489,817.2 L489,817.2 L489,817.2 L505,817.2 L505,817.2 L505,817.2 L521,817.2 L521,817.2 L521,817.2 L533,817.2 C534.4,817.2 535.5,818.3 535.5,819.7 L535.5,839.7 L535.5,839.7 L535.5,839.7 L535.5,847.7 L535.5,847.7 L535.5,847.7 L535.5,867.7 C535.5,869.1 534.4,870.2 533,870.2 L513,870.2 L513,870.2 L513,870.2 L489,870.2 L489,870.2 L489,870.2 L489,870.2 Z" id="Shape" fill="#2E3D49" fill-rule="nonzero"></path>
        <g id="circuit" stroke="#2E3D49">
            <use id="Rectangle" mask="url(#mask-2)" stroke-width="6" xlink:href="#path-1"></use>
            <polyline id="animated-path-1" fill="none" stroke-width="4" class="path" stroke-width="5" fill-rule="evenodd" stroke-linecap="round" stroke-linejoin="round" stroke-opacity="1" stroke-dasharray="100,500" stroke-dashoffset="2000" fill="#666" stroke="#02B3E4" points="517.453125 440.724609 585.777088 440.724609 585.777088 456.950139 664.202549 535.375601 739.106351 535.375601 760.757853 513.724099 794.813342 513.724099 829.65007 548.560826 880.623227 548.560826"></polyline>
            <polyline id="animated-path-1-bg" fill="none" stroke-width="1" stroke="#2E3D49" points="517.453125 440.724609 585.777088 440.724609 585.777088 456.950139 664.202549 535.375601 739.106351 535.375601 760.757853 513.724099 794.813342 513.724099 829.65007 548.560826 880.623227 548.560826"></polyline>
        </g>
    </g>
</svg>