
<svg version="1.0" xmlns="http://www.w3.org/2000/svg"
 width="1390.000000pt" height="970.000000pt" viewBox="0 0 1390.000000 970.000000"
 preserveAspectRatio="xMidYMid meet">

<g transform="translate(0.000000,970.000000) scale(0.100000,-0.100000)"
fill="#000000" stroke="none">
<path d="M6917 9040 c-4 -41 -21 -293 -37 -560 -17 -267 -46 -732 -65 -1035
-219 -3470 -202 -3164 -182 -3227 10 -33 34 -74 57 -101 141 -159 395 -123
486 68 20 41 24 66 24 143 0 73 -88 1641 -115 2052 -5 80 -37 627 -120 2055
-43 747 -39 696 -48 605z"/>
<path d="M9051 7878 c-38 -79 -193 -395 -346 -703 -153 -308 -324 -654 -380
-770 -56 -115 -229 -466 -384 -780 -155 -313 -287 -588 -292 -611 -30 -117 74
-244 199 -244 50 0 119 36 153 80 18 24 94 227 237 635 212 603 848 2413 876
2493 28 79 5 42 -63 -100z"/>
<path d="M4755 7985 c4 -11 178 -501 387 -1090 209 -588 456 -1286 550 -1550
99 -281 180 -494 194 -513 47 -61 133 -90 209 -71 97 24 165 124 152 224 -3
26 -265 558 -752 1530 -410 820 -743 1481 -740 1470z"/>
<path d="M10735 6773 c-213 -192 -1504 -1352 -2864 -2575 -550 -495 -536 -478
-536 -623 0 -106 17 -147 88 -213 62 -56 108 -75 193 -76 60 -1 79 3 130 29
62 32 24 -11 2922 3315 141 162 270 309 286 327 15 18 26 33 25 33 -2 0 -112
-98 -244 -217z"/>
<path d="M2911 6933 c19 -23 741 -843 1604 -1823 1480 -1679 1573 -1782 1629
-1810 162 -81 360 3 411 173 27 92 13 182 -41 255 -27 36 -459 422 -2714 2426
-476 423 -878 780 -894 795 -27 24 -27 23 5 -16z"/>
<path d="M11755 4928 c-449 -153 -1438 -488 -2120 -718 -209 -71 -422 -143
-474 -160 -130 -45 -182 -94 -197 -187 -20 -125 102 -249 225 -229 18 3 244
106 500 229 2372 1140 2545 1224 2511 1216 -3 -1 -203 -68 -445 -151z"/>
<path d="M1725 5016 c50 -24 466 -222 925 -440 459 -219 1098 -524 1420 -677
543 -258 590 -279 640 -279 185 0 274 214 143 342 -36 35 -111 61 -1622 568
-871 291 -1587 530 -1590 530 -3 -1 35 -20 84 -44z"/>
<path d="M8238 3246 c-102 -27 -175 -105 -204 -215 -29 -117 19 -241 119 -308
95 -64 18 -64 1042 2 386 25 838 54 1250 80 220 14 501 32 625 40 124 8 441
28 705 45 264 17 581 37 705 45 124 8 304 19 400 25 96 7 177 14 179 16 2 2
-10 4 -28 4 -18 0 -137 7 -265 15 -127 8 -386 23 -576 35 -896 53 -1027 60
-1195 70 -99 6 -290 17 -425 25 -521 32 -2275 135 -2280 134 -3 0 -26 -6 -52
-13z"/>
<path d="M4740 3195 c-393 -24 -1109 -67 -1590 -95 -2000 -117 -2362 -139
-2366 -142 -2 -3 121 -12 274 -21 263 -16 571 -36 1457 -92 215 -14 858 -54
1430 -90 572 -36 1175 -74 1340 -85 212 -13 313 -16 343 -9 192 43 288 243
201 417 -32 65 -66 100 -133 134 -63 33 -160 31 -956 -17z"/>
<path d="M1590 2290 l0 -70 300 0 300 0 0 -715 0 -715 4962 2 4962 3 4 783 4
782 -256 0 -257 0 -317 -261 c-174 -144 -324 -268 -333 -275 -13 -12 -59 22
-350 261 l-334 274 -252 1 -253 0 0 -515 0 -515 260 0 260 0 0 310 c0 171 4
310 8 310 4 0 121 -99 260 -220 l252 -220 133 0 132 1 253 219 c139 121 258
220 263 220 6 0 8 -163 7 -427 l-3 -428 -4442 -3 -4443 -2 0 565 0 565 300 0
300 0 0 70 0 70 -860 0 -860 0 0 -70z"/>
<path d="M3540 1845 l0 -515 260 0 260 0 2 228 3 227 318 3 317 2 0 -230 0
-230 265 0 265 0 0 515 0 515 -265 0 -265 0 0 -220 0 -220 -320 0 -320 0 0
220 0 220 -260 0 -260 0 0 -515z"/>
<path d="M5710 1845 l0 -515 778 0 777 0 -2 72 -1 73 -516 3 -517 2 3 148 3
147 448 3 447 2 0 70 0 70 -450 0 -450 0 0 150 0 150 516 2 516 3 0 65 0 65
-776 3 -776 2 0 -515z"/>
<path d="M7600 1846 l0 -516 260 0 260 0 0 220 0 220 153 0 154 0 241 -220
241 -220 274 2 275 3 -275 230 -274 230 63 13 c182 38 312 97 355 161 27 40
31 126 9 170 -35 67 -145 132 -276 165 -180 44 -251 49 -867 53 l-593 5 0
-516z m1015 364 c104 -12 185 -46 203 -85 26 -57 10 -141 -33 -169 -61 -40
-123 -48 -397 -53 l-268 -5 0 161 0 161 203 0 c111 0 243 -5 292 -10z"/>
</g>
</svg>
